PathFileType	4	(X/Y/Z)	AB03\squats_1.trc
DataRate	CameraRate	NumFrames	NumMarkers	Units	OrigDataRate	OrigDataStartFrame	OrigNumFrames
200.000000	200.000000	4	35	mm	200.000000	270	309
Frame#	Time	C7			LSHO			STRN			LASI			RASI			LPSI			RPSI			LGTR			RGTR			LTHC			LTHL			LTHR			LKNE			LMKNE			LSHC			LSHL			LSHR			LANK			LMANK			LMT1			LMT5			LCAL			RTHC			RTHL			RTHR			RKNE			RMKNE			RSHC			RSHL			RSHR			RANK			RMANK			RMT1			RMT5			RCAL			
		X1	Y1	Z1	X2	Y2	Z2	X3	Y3	Z3	X4	Y4	Z4	X5	Y5	Z5	X6	Y6	Z6	X7	Y7	Z7	X8	Y8	Z8	X9	Y9	Z9	X10	Y10	Z10	X11	Y11	Z11	X12	Y12	Z12	X13	Y13	Z13	X14	Y14	Z14	X15	Y15	Z15	X16	Y16	Z16	X17	Y17	Z17	X18	Y18	Z18	X19	Y19	Z19	X20	Y20	Z20	X21	Y21	Z21	X22	Y22	Z22	X23	Y23	Z23	X24	Y24	Z24	X25	Y25	Z25	X26	Y26	Z26	X27	Y27	Z27	X28	Y28	Z28	X29	Y29	Z29	X30	Y30	Z30	X31	Y31	Z31	X32	Y32	Z32	X33	Y33	Z33	X34	Y34	Z34	X35	Y35	Z35	

271	25.84	-2214.476200712933	1498.844026983029	2472.905409095329	-2137.542415860606	1433.085654919474	2326.931648999425	-2115.852898872819	1337.684079696467	2490.287556111898	-2297.837338235198	984.7386974367274	2325.255417027613	-2312.472572853186	972.3192038906967	2645.160668806843	-2509.189629471639	1136.621595642513	2423.571932238404	-2510.437967204705	1136.670841236684	2527.968950779252	-2390.031728879686	965.5892469652831	2248.253762553886	-2399.067006782867	974.0220416574795	2710.102077974043	-2354.690608417023	844.3498717850363	2227.294650213434	-2233.30290663294	782.8832672884872	2337.767958917083	-2472.574815042888	733.7092338220407	2276.763810239283	-2262.189507761785	522.8110431232114	2218.338015058936	-2269.73903137339	483.7525876390816	2382.08956820304	-2329.524531923165	308.9790808873207	2156.431527841019	-2251.389846226934	268.8133462721831	2214.216868784446	-2382.850537640716	249.3398972253289	2226.778107939524	-2331.029807165975	122.259065840356	2145.751606841484	-2297.137895910301	111.7985970668414	2241.679985257031	-2192.650946578457	58.56771130542079	2211.327650025757	-2218.875234101843	56.11975611558437	2104.726500095521	-2405.980869588989	70.90082820781043	2199.889230792487	-2463.266953924529	674.6104894009344	2628.825941425486	-2374.331143733925	793.7024972819084	2734.161289492298	-2230.626566478519	782.360855395157	2616.610858444556	-2253.743602112528	525.966259695021	2728.125657104253	-2230.963313839899	495.234128048507	2574.893153510387	-2369.122462501557	220.7796963614784	2713.102537946681	-2302.28145546623	320.9608616289573	2778.802243642823	-2245.188525232433	267.9977711027778	2720.462164549027	-2326.361264368069	117.9474833595565	2790.14431023988	-2305.852905036825	114.8151808791074	2697.233499612053	-2178.149480837405	48.26536186756432	2706.72077835446	-2204.42906814384	57.41014803973084	2821.546819035674	-2400.915077488365	69.04851710888023	2740.750992339516	
272	25.845	-2216.085174540188	1501.595051457656	2472.897095016333	-2138.953003399489	1436.311043177161	2326.733115277633	-2116.604067825454	1341.042149094446	2490.157470925534	-2296.641251791877	986.6180254187474	2325.056785446681	-2310.885374512199	974.0679746785304	2645.037029581578	-2508.466752580563	1137.587765680617	2423.570319217831	-2509.62633543008	1137.648183007252	2527.934236430408	-2388.908770324907	966.7865263693127	2248.298111065081	-2397.607936159186	975.209454011906	2709.801635157445	-2353.817609008179	845.1763606202142	2227.369926686684	-2232.617724553028	782.9792576035704	2337.729748585717	-2472.125241754376	735.0381534402703	2277.13175879143	-2263.025282124864	522.9478496706113	2218.583641053187	-2270.414375912875	483.944849900423	2382.40541867744	-2330.05003023488	309.0387558121936	2156.616647214899	-2251.758908048428	268.9749974371422	2214.290479653122	-2383.187047564943	249.2259722818187	2226.928061766094	-2331.075033227118	122.2617952701127	2145.799333348873	-2297.153342515592	111.8057933671275	2241.679524839434	-2192.65389182303	58.5776824961488	2211.306975019945	-2218.882143968505	56.1195938042727	2104.706298211418	-2405.987810791656	70.89606839615816	2199.911373614364	-2462.823435317978	675.8366073272667	2628.464746087484	-2373.232962528119	794.6215317968763	2733.871711988369	-2229.685321604188	782.3697325034592	2616.235825644823	-2254.142418567923	526.0443719175275	2727.600892773562	-2231.455172642634	495.1988841110647	2574.385316162541	-2369.295206584504	220.6928213586065	2712.923078583267	-2302.589514708139	321.0425042439765	2778.507232782772	-2245.429440810485	268.0635277379658	2720.230266943524	-2326.367693734858	117.9656083870419	2790.078368167029	-2305.863102369517	114.7911707239101	2697.179145287693	-2178.143249954127	48.25881274232431	2706.715731659772	-2204.424345359213	57.41308834187136	2821.528421125576	-2400.913813960451	69.04665551549253	2740.741147452438	
273	25.85	-2217.716927283415	1504.305210941078	2472.877522497572	-2140.376757396247	1439.500856228171	2326.538901742042	-2117.36806894134	1344.369282708918	2490.025226637332	-2295.438753036792	988.4707779668565	2324.856568604438	-2309.288736702536	975.8035368669786	2644.921941030601	-2507.740783291752	1138.526310179219	2423.564565088219	-2508.813633257098	1138.604493794058	2527.895110432371	-2387.77568079312	967.9600245609209	2248.344446996151	-2396.137551865622	976.3900945171931	2709.510811191274	-2352.932668826264	845.9877633739058	2227.452496407749	-2231.9303494431	783.0611878611506	2337.701964144605	-2471.668447727245	736.3514444831615	2277.502522574136	-2263.859172983293	523.0807817929721	2218.833078274586	-2271.087506880026	484.1298239130211	2382.722790468607	-2330.575264008214	309.0965722921147	2156.804215153028	-2252.128344270825	269.1343142621716	2214.366444708326	-2383.525654753924	249.1109839002889	2227.078571867171	-2331.120180248994	122.2645665184407	2145.847176693156	-2297.171052492517	111.8118510108912	2241.678730945429	-2192.657263978515	58.58903088742648	2211.287655949394	-2218.889822946766	56.12011252381947	2104.688245603303	-2405.995572579639	70.89000068612687	2199.933263248324	-2462.376263181214	677.0587547309939	2628.110372188567	-2372.12011878875	795.5368560652469	2733.586089481968	-2228.745865451374	782.3677300892424	2615.85104860545	-2254.543508989097	526.1199195527378	2727.076252858533	-2231.952135493203	495.160447805981	2573.875711375772	-2369.469161528436	220.6036118789083	2712.743336410745	-2302.901160209527	321.1232515944347	2778.211633805268	-2245.67175519899	268.1277205395651	2719.999065669161	-2326.374374183831	117.9828992580227	2790.012876655951	-2305.87314224053	114.7656456841968	2697.127221990527	-2178.138854690473	48.25249324690257	2706.710830422191	-2204.419306985343	57.41523295731874	2821.509438764143	-2400.912716400987	69.04420857259313	2740.731687820404	
274	25.855	-2219.371236941699	1506.974061151863	2472.84647114811	-2141.814459566418	1442.65443170932	2326.348466336259	-2118.144929667115	1347.665376286082	2489.890587883815	-2294.2290340737	990.2970769128829	2324.654698591547	-2307.682526454897	977.5260003904316	2644.815350832552	-2507.010913938669	1139.437018712665	2423.554490874815	-2507.998974059324	1139.539519652597	2527.851554436568	-2386.631631947777	969.1092791840966	2248.392638404952	-2394.654780534688	977.5640604599326	2709.229845074612	-2352.035042242263	846.7847796793548	2227.542194779498	-2231.239916732456	783.1291160230195	2337.683659242447	-2471.203518388035	737.6495390619457	2277.875439672038	-2264.690899151887	523.2100946508566	2219.085914741866	-2271.758250234734	484.3075891905335	2383.040956994075	-2331.100017019047	309.1525427353507	2156.993973791662	-2252.498163076516	269.2914452320325	2214.444729964226	-2383.866349120248	248.99518770066	2227.229288671092	-2331.165190416193	122.267468038646	2145.895037517777	-2297.19057473443	111.8171413965718	2241.677605401862	-2192.660945480878	58.60182058088967	2211.269506309948	-2218.898246055071	56.12115107747	2104.672116557814	-2406.004086495291	70.88271331252315	2199.95484491381	-2461.92519748205	678.2774459385171	2627.763245362291	-2370.991821825047	796.4488796444169	2733.304333484581	-2227.807915237561	782.3547173910993	2615.45676438658	-2254.947535520435	526.1932208421575	2726.552423836314	-2232.454908047967	495.1191417337552	2573.364902794774	-2369.644297196537	220.512149895303	2712.563578207547	-2303.21676929263	321.203412905786	2777.915764059746	-2245.915667643789	268.1906754683158	2719.768810069428	-2326.381505950936	117.9994396877026	2789.947930926852	-2305.883016502341	114.7386307687704	2697.077812231244	-2178.136256292504	48.24642731074905	2706.706116781721	-2204.414083500614	57.41654970635747	2821.490011364388	-2400.911813843141	69.04123287542359	2740.722634705408	
